<?xml version="1.0" encoding="UTF-8" standalone="no"?>
<svg
   style="height: 512px; width: 512px;"
   viewBox="0 0 512 512"
   version="1.1"
   id="svg6"
   sodipodi:docname="AlarmClock.svg"
   inkscape:version="1.1 (c68e22c387, 2021-05-23)"
   xmlns:inkscape="http://www.inkscape.org/namespaces/inkscape"
   xmlns:sodipodi="http://sodipodi.sourceforge.net/DTD/sodipodi-0.dtd"
   xmlns="http://www.w3.org/2000/svg"
   xmlns:svg="http://www.w3.org/2000/svg">
  <defs
     id="defs10" />
  <sodipodi:namedview
     id="namedview8"
     pagecolor="#505050"
     bordercolor="#eeeeee"
     borderopacity="1"
     inkscape:pageshadow="0"
     inkscape:pageopacity="0"
     inkscape:pagecheckerboard="0"
     showgrid="false"
     inkscape:zoom="1.625"
     inkscape:cx="208.30769"
     inkscape:cy="354.76923"
     inkscape:window-width="1920"
     inkscape:window-height="1017"
     inkscape:window-x="-8"
     inkscape:window-y="-8"
     inkscape:window-maximized="1"
     inkscape:current-layer="g4" />
  <g
     class=""
     id="g4">
    <path
       d="m 265,72.048 -18,-0.001 h -28.88 v 18 H 247 v 39.074 c -84.367,4.682 -151.514,74.737 -151.514,160.26 0,41.037 15.468,78.508 40.873,106.91 l -36.237,36.237 12.727,12.73 36.238,-36.24 c 28.403,25.407 65.873,40.876 106.913,40.876 41.04,0 78.51,-15.47 106.912,-40.875 l 36.238,36.238 12.727,-12.73 -36.236,-36.235 c 25.406,-28.402 40.874,-65.873 40.874,-106.91 0,-85.523 -67.147,-155.578 -151.514,-160.26 V 90.048 h 28.88 v -18 H 265 v 0 L 247,72.047 Z M 142.094,88.687 c -3.583,-0.03 -7.267,0.125 -11.014,0.465 C 111.1,90.97 89.15,98 73.637,113.514 c -15.514,15.513 -22.545,37.462 -24.362,57.443 -0.908,9.99 -0.488,19.54 1.184,27.898 1.67,8.36 4.315,15.662 9.784,21.13 l 6.363,6.365 6.366,-6.364 113.5,-113.502 -6.366,-6.363 c -5.47,-5.468 -12.77,-8.112 -21.128,-9.784 -4.18,-0.836 -8.658,-1.358 -13.34,-1.56 -1.17,-0.05 -2.352,-0.08 -3.546,-0.088 z m 227.812,0 c -1.194,0.01 -2.376,0.04 -3.547,0.09 -4.682,0.2 -9.16,0.723 -13.34,1.56 -8.357,1.67 -15.658,4.315 -21.127,9.784 l -6.366,6.364 6.366,6.366 113.5,113.5 6.363,-6.364 c 5.47,-5.47 8.113,-12.772 9.785,-21.13 1.673,-8.36 2.093,-17.908 1.185,-27.9 -1.817,-19.98 -8.848,-41.93 -24.362,-57.442 C 422.85,98 400.9,90.97 380.92,89.152 c -3.747,-0.34 -7.43,-0.494 -11.014,-0.465 z M 256,146.865 c 78.815,0 142.514,63.7 142.514,142.514 0,78.814 -63.7,142.513 -142.514,142.513 -78.815,0 -142.514,-63.7 -142.514,-142.514 0,-78.816 63.7,-142.515 142.514,-142.515 z m -88.332,41.453 -12.73,12.73 82.92,82.917 c -0.52635,1.75657 -0.79482,3.58027 -0.797,5.414 0.001,10.4591 8.4799,18.93745 18.939,18.938 6.95751,-0.002 13.3539,-3.81818 16.66,-9.94 h 59.096 v -18 h -59.11 c -3.30451,-6.11624 -9.69415,-9.9306 -16.646,-9.937 -1.83206,0.005 -3.65371,0.27585 -5.408,0.804 L 167.668,188.32 Z"
       fill="#4a4a4a"
       fill-opacity="1"
       style="fill:#2e2e2e;fill-opacity:1"
       sodipodi:nodetypes="ccccccsccccsccccsccccccccccccccccccccccccccccccccccccsssccccccccccccccc"
       id="path4310" />
  </g>
</svg>
