<?xml version="1.0" encoding="UTF-8"?>
<!-- Do not edit this file with editors other than diagrams.net -->
<!DOCTYPE svg PUBLIC "-//W3C//DTD SVG 1.1//EN" "http://www.w3.org/Graphics/SVG/1.1/DTD/svg11.dtd">
<svg xmlns="http://www.w3.org/2000/svg" xmlns:xlink="http://www.w3.org/1999/xlink" version="1.1" width="761px" height="1165px" viewBox="-0.5 -0.5 761 1165" content="&lt;mxfile host=&quot;drawio-plugin&quot; modified=&quot;2022-05-13T19:30:17.576Z&quot; agent=&quot;5.0 (Windows NT 6.2; Win64; x64) AppleWebKit/537.36 (KHTML, like Gecko) Chrome/97.0.4692.45 Safari/537.36&quot; etag=&quot;W_ARswBYXiI3fkY967gi&quot; version=&quot;15.5.4&quot; type=&quot;embed&quot;&gt;&lt;diagram id=&quot;23iRSUPoRavnBvh4doch&quot; name=&quot;Page-1&quot;&gt;5Zpdc6M2FIZ/DZdhAGE+LtdO3O1MdrJT73Qvd2QQRhOBKMix3V9fyUbEIKVLJ1qbuL5I4CBAet4D0ithgUWx/62GVf6FpohYnpPuLXBveZ7reSH/JyKHUySK28Cmxmlb6DWwwn+jNui00S1OUdMryCglDFf9YELLEiWsF4N1TXf9Yhkl/btWcIOUwCqBRI1+xynL21bIZon4Z4Q3ubyzG8SnIwWUhduWNDlM6e4sBB4ssKgpZaetYr9ARMCTXE7nLd842lWsRiUbcwKYnc54gWTbNq6tGDvI1u5yzNCqgonY33FFLTDPWUH4nss3YVOdGGd4j/hl5+0VUc3Q/s1quV1jeZYgWiBWH3iR9oRZi6fND7/d3b3CBkEby89Ad0HYCrzprvzKgG+0GN5AEkwSiX9VJuEkmQyRgIsyiSbJRMmTy0KJJwllwCRy4wsykU/qxJgME+XCUFwFyrKmvOZDMryBrA+jYTV9RgtKaM0jJS15yXmGCRmEIMGbku8mHAji8bnAhXkv/qk9UOA0FbeZ6+jXdFumgvW9Y4a35/R5uzMFt5a2CdieAnsOk+fbZR1ckTVQWP9xvMP/BrbvXJC2r9B+RNkNwx6+RS4KWzULc8oYLW4X9zC3w/iCuFUj8o1Wt8t6mNoXZa0aHB4J/toKIz6/e1zc332j2yS/u8dNReBBUaFP4yfDOSOJ2e/gHM0o39fA6kaj76I1UesTeX0ongplpmEyM4FkosYn8K+GRF5jYkgC+V69BhLV9UwBSehF10OiepOvdIdqmmW329X5YdgDHqm8f1VPN9P4E7QWE843S3s2i69GW/UnK5qxHa87j946+EDO8lwBvOpVvuMlvl3WoQeuxnrEiskZYMnpEa4R+UobzDAVvNYnL6khS0RJMWO1OWKTQlgeyI4/DXxGq05LuUbniYhccBPYU9jknQb8SCUqW+w3YtXSxrQJbZzQsrF3OMO8REWxqNDDC69Xc2yMAdlAZMvZKdn7At9WnY8X26EqX7eq+R75RizufGj5akQoNDWgHvTcLnB1YvkaqUIDUo0wXh9aqq24VkZw9adlzCr7cWCPesJcjWgzWfBdso0whx9athQRxJChQcNs4M90C5i/qCcLRlhWiYFQWj3iArOfz/c0py9YXK9N7s8tUcOJHoL+/AcIVXLS/PaS3AS5Ec52mEANz8TGbmCG2MHOeX1+vFDC4Ab9cPv81I53xEOiT3jl0WmeEUtyKcjZMI8/PMvjz5A4wUAc6bnPxHEdW9oz4/qoNnukPgwlub1t1hOTpKYMttePTQ2h/f5kGQDADgNVpUiVyHdtBxhQSTXnv1teQMQ7Zl3zrY3YelKU+0+zzxovcwbTlPWT/kOylPM85x2up3mLRwYoakx3heAzT64hOH4irpq3TNq/TbtpKBrA5kb9kUosJxDOsMWazi828YpQLXO32uE8lfz0J82c3HtTz0SuDdZCtCMG3WKIibWQQDW/q5JS3uF/AFKOZpbA1U0TGCGl+sxPBNaFJfq3Jf/7ZdvgROTaNNOsg3AJepb4HEp+BXw8dvYtNXj4Bw==&lt;/diagram&gt;&lt;/mxfile&gt;"><defs/><g><rect x="0" y="25" width="360" height="360" fill="#ffffff" stroke="#000000" pointer-events="all"/><rect x="400" y="25" width="360" height="360" fill="#ffffff" stroke="#000000" pointer-events="all"/><rect x="0" y="415" width="360" height="360" fill="#ffffff" stroke="#000000" pointer-events="all"/><rect x="400" y="415" width="360" height="360" fill="#ffffff" stroke="#000000" pointer-events="all"/><rect x="0" y="804" width="360" height="360" fill="#ffffff" stroke="#000000" pointer-events="all"/><rect x="400" y="804" width="360" height="360" fill="#ffffff" stroke="#000000" pointer-events="all"/><rect x="150" y="0" width="60" height="30" fill="none" stroke="none" pointer-events="all"/><g transform="translate(-0.5 -0.5)"><switch><foreignObject pointer-events="none" width="100%" height="100%" requiredFeatures="http://www.w3.org/TR/SVG11/feature#Extensibility" style="overflow: visible; text-align: left;"><div xmlns="http://www.w3.org/1999/xhtml" style="display: flex; align-items: unsafe center; justify-content: unsafe center; width: 58px; height: 1px; padding-top: 15px; margin-left: 151px;"><div style="box-sizing: border-box; font-size: 0px; text-align: center;"><div style="display: inline-block; font-size: 12px; font-family: Helvetica; color: rgb(0, 0, 0); line-height: 1.2; pointer-events: all; white-space: normal; overflow-wrap: normal;">Front</div></div></div></foreignObject><text x="180" y="19" fill="#000000" font-family="Helvetica" font-size="12px" text-anchor="middle">Front</text></switch></g><rect x="550" y="0" width="60" height="30" fill="none" stroke="none" pointer-events="all"/><g transform="translate(-0.5 -0.5)"><switch><foreignObject pointer-events="none" width="100%" height="100%" requiredFeatures="http://www.w3.org/TR/SVG11/feature#Extensibility" style="overflow: visible; text-align: left;"><div xmlns="http://www.w3.org/1999/xhtml" style="display: flex; align-items: unsafe center; justify-content: unsafe center; width: 58px; height: 1px; padding-top: 15px; margin-left: 551px;"><div style="box-sizing: border-box; font-size: 0px; text-align: center;"><div style="display: inline-block; font-size: 12px; font-family: Helvetica; color: rgb(0, 0, 0); line-height: 1.2; pointer-events: all; white-space: normal; overflow-wrap: normal;">Back</div></div></div></foreignObject><text x="580" y="19" fill="#000000" font-family="Helvetica" font-size="12px" text-anchor="middle">Back</text></switch></g><rect x="550" y="390" width="60" height="30" fill="none" stroke="none" pointer-events="all"/><g transform="translate(-0.5 -0.5)"><switch><foreignObject pointer-events="none" width="100%" height="100%" requiredFeatures="http://www.w3.org/TR/SVG11/feature#Extensibility" style="overflow: visible; text-align: left;"><div xmlns="http://www.w3.org/1999/xhtml" style="display: flex; align-items: unsafe center; justify-content: unsafe center; width: 58px; height: 1px; padding-top: 405px; margin-left: 551px;"><div style="box-sizing: border-box; font-size: 0px; text-align: center;"><div style="display: inline-block; font-size: 12px; font-family: Helvetica; color: rgb(0, 0, 0); line-height: 1.2; pointer-events: all; white-space: normal; overflow-wrap: normal;">Right</div></div></div></foreignObject><text x="580" y="409" fill="#000000" font-family="Helvetica" font-size="12px" text-anchor="middle">Right</text></switch></g><rect x="150" y="390" width="60" height="30" fill="none" stroke="none" pointer-events="all"/><g transform="translate(-0.5 -0.5)"><switch><foreignObject pointer-events="none" width="100%" height="100%" requiredFeatures="http://www.w3.org/TR/SVG11/feature#Extensibility" style="overflow: visible; text-align: left;"><div xmlns="http://www.w3.org/1999/xhtml" style="display: flex; align-items: unsafe center; justify-content: unsafe center; width: 58px; height: 1px; padding-top: 405px; margin-left: 151px;"><div style="box-sizing: border-box; font-size: 0px; text-align: center;"><div style="display: inline-block; font-size: 12px; font-family: Helvetica; color: rgb(0, 0, 0); line-height: 1.2; pointer-events: all; white-space: normal; overflow-wrap: normal;">Left</div></div></div></foreignObject><text x="180" y="409" fill="#000000" font-family="Helvetica" font-size="12px" text-anchor="middle">Left</text></switch></g><rect x="550" y="780" width="60" height="30" fill="none" stroke="none" pointer-events="all"/><g transform="translate(-0.5 -0.5)"><switch><foreignObject pointer-events="none" width="100%" height="100%" requiredFeatures="http://www.w3.org/TR/SVG11/feature#Extensibility" style="overflow: visible; text-align: left;"><div xmlns="http://www.w3.org/1999/xhtml" style="display: flex; align-items: unsafe center; justify-content: unsafe center; width: 58px; height: 1px; padding-top: 795px; margin-left: 551px;"><div style="box-sizing: border-box; font-size: 0px; text-align: center;"><div style="display: inline-block; font-size: 12px; font-family: Helvetica; color: rgb(0, 0, 0); line-height: 1.2; pointer-events: all; white-space: normal; overflow-wrap: normal;">Bottom</div></div></div></foreignObject><text x="580" y="799" fill="#000000" font-family="Helvetica" font-size="12px" text-anchor="middle">Bottom</text></switch></g><rect x="150" y="780" width="60" height="30" fill="none" stroke="none" pointer-events="all"/><g transform="translate(-0.5 -0.5)"><switch><foreignObject pointer-events="none" width="100%" height="100%" requiredFeatures="http://www.w3.org/TR/SVG11/feature#Extensibility" style="overflow: visible; text-align: left;"><div xmlns="http://www.w3.org/1999/xhtml" style="display: flex; align-items: unsafe center; justify-content: unsafe center; width: 58px; height: 1px; padding-top: 795px; margin-left: 151px;"><div style="box-sizing: border-box; font-size: 0px; text-align: center;"><div style="display: inline-block; font-size: 12px; font-family: Helvetica; color: rgb(0, 0, 0); line-height: 1.2; pointer-events: all; white-space: normal; overflow-wrap: normal;">Top</div></div></div></foreignObject><text x="180" y="799" fill="#000000" font-family="Helvetica" font-size="12px" text-anchor="middle">Top</text></switch></g><rect x="10" y="85" width="340" height="240" fill="#ffffff" stroke="#000000" pointer-events="all"/><g transform="translate(-0.5 -0.5)"><switch><foreignObject pointer-events="none" width="100%" height="100%" requiredFeatures="http://www.w3.org/TR/SVG11/feature#Extensibility" style="overflow: visible; text-align: left;"><div xmlns="http://www.w3.org/1999/xhtml" style="display: flex; align-items: unsafe center; justify-content: unsafe center; width: 338px; height: 1px; padding-top: 205px; margin-left: 11px;"><div style="box-sizing: border-box; font-size: 0px; text-align: center;"><div style="display: inline-block; font-size: 12px; font-family: Helvetica; color: rgb(0, 0, 0); line-height: 1.2; pointer-events: all; white-space: normal; overflow-wrap: normal;">7"-LCD-Touch-Display</div></div></div></foreignObject><text x="180" y="209" fill="#000000" font-family="Helvetica" font-size="12px" text-anchor="middle">7"-LCD-Touch-Display</text></switch></g><rect x="432" y="105" width="50" height="50" fill="#ffffff" stroke="#000000" pointer-events="all"/><rect x="514" y="105" width="50" height="50" fill="#ffffff" stroke="#000000" pointer-events="all"/><rect x="596" y="105" width="50" height="50" fill="#ffffff" stroke="#000000" pointer-events="all"/><rect x="678" y="105" width="50" height="50" fill="#ffffff" stroke="#000000" pointer-events="all"/><rect x="427" y="65" width="60" height="30" fill="none" stroke="none" pointer-events="all"/><g transform="translate(-0.5 -0.5)"><switch><foreignObject pointer-events="none" width="100%" height="100%" requiredFeatures="http://www.w3.org/TR/SVG11/feature#Extensibility" style="overflow: visible; text-align: left;"><div xmlns="http://www.w3.org/1999/xhtml" style="display: flex; align-items: unsafe center; justify-content: unsafe center; width: 58px; height: 1px; padding-top: 80px; margin-left: 428px;"><div style="box-sizing: border-box; font-size: 0px; text-align: center;"><div style="display: inline-block; font-size: 12px; font-family: Helvetica; color: rgb(0, 0, 0); line-height: 1.2; pointer-events: all; white-space: normal; overflow-wrap: normal;">Poweroff</div></div></div></foreignObject><text x="457" y="84" fill="#000000" font-family="Helvetica" font-size="12px" text-anchor="middle">Poweroff</text></switch></g><rect x="509" y="65" width="60" height="30" fill="none" stroke="none" pointer-events="all"/><g transform="translate(-0.5 -0.5)"><switch><foreignObject pointer-events="none" width="100%" height="100%" requiredFeatures="http://www.w3.org/TR/SVG11/feature#Extensibility" style="overflow: visible; text-align: left;"><div xmlns="http://www.w3.org/1999/xhtml" style="display: flex; align-items: unsafe center; justify-content: unsafe center; width: 58px; height: 1px; padding-top: 80px; margin-left: 510px;"><div style="box-sizing: border-box; font-size: 0px; text-align: center;"><div style="display: inline-block; font-size: 12px; font-family: Helvetica; color: rgb(0, 0, 0); line-height: 1.2; pointer-events: all; white-space: normal; overflow-wrap: normal;">Reboot</div></div></div></foreignObject><text x="539" y="84" fill="#000000" font-family="Helvetica" font-size="12px" text-anchor="middle">Reboot</text></switch></g><rect x="591" y="65" width="60" height="30" fill="none" stroke="none" pointer-events="all"/><g transform="translate(-0.5 -0.5)"><switch><foreignObject pointer-events="none" width="100%" height="100%" requiredFeatures="http://www.w3.org/TR/SVG11/feature#Extensibility" style="overflow: visible; text-align: left;"><div xmlns="http://www.w3.org/1999/xhtml" style="display: flex; align-items: unsafe center; justify-content: unsafe center; width: 58px; height: 1px; padding-top: 80px; margin-left: 592px;"><div style="box-sizing: border-box; font-size: 0px; text-align: center;"><div style="display: inline-block; font-size: 12px; font-family: Helvetica; color: rgb(0, 0, 0); line-height: 1.2; pointer-events: all; white-space: normal; overflow-wrap: normal;">Software Reboot</div></div></div></foreignObject><text x="621" y="84" fill="#000000" font-family="Helvetica" font-size="12px" text-anchor="middle">Software R...</text></switch></g><rect x="673" y="65" width="60" height="30" fill="none" stroke="none" pointer-events="all"/><g transform="translate(-0.5 -0.5)"><switch><foreignObject pointer-events="none" width="100%" height="100%" requiredFeatures="http://www.w3.org/TR/SVG11/feature#Extensibility" style="overflow: visible; text-align: left;"><div xmlns="http://www.w3.org/1999/xhtml" style="display: flex; align-items: unsafe center; justify-content: unsafe center; width: 58px; height: 1px; padding-top: 80px; margin-left: 674px;"><div style="box-sizing: border-box; font-size: 0px; text-align: center;"><div style="display: inline-block; font-size: 12px; font-family: Helvetica; color: rgb(0, 0, 0); line-height: 1.2; pointer-events: all; white-space: normal; overflow-wrap: normal;">WiFi</div></div></div></foreignObject><text x="703" y="84" fill="#000000" font-family="Helvetica" font-size="12px" text-anchor="middle">WiFi</text></switch></g><rect x="688.15" y="119.5" width="29.7" height="21" fill="none" stroke="none" pointer-events="all"/><path d="M 703 140.5 L 700.9 138.4 C 702.07 137.26 703.93 137.26 705.1 138.4 Z M 707.26 136.3 C 706.13 135.16 704.6 134.53 703 134.53 C 701.4 134.53 699.87 135.16 698.74 136.3 L 696.64 134.14 C 700.15 130.63 705.85 130.63 709.36 134.14 Z M 711.52 132.04 C 709.27 129.77 706.2 128.49 703 128.49 C 699.8 128.49 696.73 129.77 694.48 132.04 L 692.44 129.85 C 698.29 124.06 707.71 124.06 713.56 129.85 Z M 715.72 127.75 C 708.69 120.73 697.31 120.73 690.28 127.75 L 688.15 125.65 C 692.09 121.71 697.43 119.5 703 119.5 C 708.57 119.5 713.91 121.71 717.85 125.65 Z" fill="#ffffff" stroke="#000000" stroke-width="2" stroke-miterlimit="10" pointer-events="all"/><path d="M 551 131.5 C 551 138.13 545.63 143.5 539 143.5 C 532.37 143.5 527 138.13 527 131.5 C 527 124.87 532.37 119.5 539 119.5" fill="none" stroke="#000000" stroke-width="2" stroke-miterlimit="10" pointer-events="all"/><path d="M 539 116.5 L 543.5 119.5 L 539 122.5 Z" fill="#ffffff" stroke="#000000" stroke-width="2" stroke-miterlimit="10" pointer-events="all"/><path d="M 460 140.5 L 467.5 140.5 L 467.5 119.5 L 446.5 119.5 L 446.5 140.5 L 454 140.5" fill="#ffffff" stroke="#000000" stroke-width="2" stroke-miterlimit="10" transform="translate(0,132.25)scale(1,-1)translate(0,-132.25)" pointer-events="all"/><path d="M 451 133 L 457 127 L 463 133 M 457 145 L 457 127" fill="none" stroke="#000000" stroke-width="2" stroke-miterlimit="10" transform="translate(0,132.25)scale(1,-1)translate(0,-132.25)" pointer-events="all"/><ellipse cx="621" cy="130" rx="15" ry="15" fill="#ffffff" stroke="#000000" stroke-width="2" pointer-events="all"/><path d="M 612 130 L 630 130" fill="#ffffff" stroke="#000000" stroke-width="2" stroke-miterlimit="10" pointer-events="all"/><path d="M 694 355 L 716 355 L 728 364.6 L 728 375 L 682 375 L 682 364.6 Z" fill="#ffffff" stroke="#000000" stroke-miterlimit="10" transform="translate(0,365)scale(1,-1)translate(0,-365)" pointer-events="all"/><rect x="712" y="313" width="10.53" height="20" fill="none" stroke="none" pointer-events="all"/><path d="M 717.39 313.08 L 712 325.65 L 719.54 323.2 L 717.6 330.08 L 716.31 329.13 L 716.97 333 L 719.88 329.76 L 718.08 330.17 L 722.53 321.06 L 714.49 323.43 L 720.29 313 Z" fill="#ffffff" stroke="#000000" stroke-miterlimit="10" pointer-events="all"/><rect x="694" y="318.76" width="18" height="41.03" fill="none" stroke="none" transform="rotate(90,703,339.28)" pointer-events="all"/><path d="M 703 318.76 L 700.4 323.32 L 702.26 323.32 L 702.26 346.61 L 697.53 342.08 C 697.22 341.69 697.01 341.19 696.99 340.67 C 696.99 338.57 696.99 337.32 696.99 336.86 C 697.87 336.55 698.5 335.71 698.5 334.72 C 698.5 333.46 697.49 332.44 696.25 332.44 C 695.01 332.44 694 333.46 694 334.71 C 694 335.71 694.63 336.54 695.51 336.86 L 695.51 340.62 C 695.51 341.64 696.06 342.71 696.71 343.39 C 696.69 343.37 696.67 343.35 696.71 343.39 C 696.72 343.4 701.73 348.21 701.73 348.21 C 702.03 348.59 702.25 349.1 702.25 349.62 L 702.25 352.25 C 700.54 352.6 699.24 354.14 699.24 355.98 C 699.24 358.08 700.92 359.79 703 359.79 C 705.08 359.79 706.76 358.09 706.76 355.98 C 706.76 354.14 705.46 352.6 703.74 352.25 L 703.74 349.66 C 703.74 349.65 703.74 349.65 703.74 349.64 L 703.74 343.91 C 703.75 343.39 703.97 342.89 704.27 342.51 C 704.27 342.51 709.28 337.71 709.29 337.7 C 709.33 337.66 709.31 337.68 709.29 337.7 C 709.94 337.01 710.49 335.94 710.49 334.92 L 710.49 331.3 L 712 331.3 L 712 326.74 L 707.5 326.74 L 707.5 331.3 L 709.01 331.3 C 709.01 331.3 709 332.25 709 334.97 C 708.99 335.49 708.78 335.99 708.47 336.38 L 703.75 340.92 L 703.75 323.32 L 705.6 323.32 L 703 318.76 Z" fill="#ffffff" stroke="#000000" stroke-miterlimit="10" transform="rotate(90,703,339.28)" pointer-events="all"/><rect x="630" y="337" width="22" height="38" fill="none" stroke="#000000" pointer-events="all"/><g transform="translate(-0.5 -0.5)"><switch><foreignObject pointer-events="none" width="100%" height="100%" requiredFeatures="http://www.w3.org/TR/SVG11/feature#Extensibility" style="overflow: visible; text-align: left;"><div xmlns="http://www.w3.org/1999/xhtml" style="display: flex; align-items: unsafe center; justify-content: unsafe center; width: 20px; height: 1px; padding-top: 356px; margin-left: 631px;"><div style="box-sizing: border-box; font-size: 0px; text-align: center;"><div style="display: inline-block; font-size: 12px; font-family: Helvetica; color: rgb(0, 0, 0); line-height: 1.2; pointer-events: all; white-space: normal; overflow-wrap: normal;">I<br />O</div></div></div></foreignObject><text x="641" y="360" fill="#000000" font-family="Helvetica" font-size="12px" text-anchor="middle">I...</text></switch></g><ellipse cx="180" cy="984" rx="45" ry="45" fill="none" stroke="#000000" pointer-events="all"/><g transform="translate(-0.5 -0.5)"><switch><foreignObject pointer-events="none" width="100%" height="100%" requiredFeatures="http://www.w3.org/TR/SVG11/feature#Extensibility" style="overflow: visible; text-align: left;"><div xmlns="http://www.w3.org/1999/xhtml" style="display: flex; align-items: unsafe center; justify-content: unsafe center; width: 88px; height: 1px; padding-top: 984px; margin-left: 136px;"><div style="box-sizing: border-box; font-size: 0px; text-align: center;"><div style="display: inline-block; font-size: 12px; font-family: Helvetica; color: rgb(0, 0, 0); line-height: 1.2; pointer-events: all; white-space: normal; overflow-wrap: normal;">Speaker</div></div></div></foreignObject><text x="180" y="988" fill="#000000" font-family="Helvetica" font-size="12px" text-anchor="middle">Speaker</text></switch></g><rect x="10" y="1115" width="340" height="40" fill="none" stroke="#000000" pointer-events="all"/><g transform="translate(-0.5 -0.5)"><switch><foreignObject pointer-events="none" width="100%" height="100%" requiredFeatures="http://www.w3.org/TR/SVG11/feature#Extensibility" style="overflow: visible; text-align: left;"><div xmlns="http://www.w3.org/1999/xhtml" style="display: flex; align-items: unsafe center; justify-content: unsafe center; width: 338px; height: 1px; padding-top: 1135px; margin-left: 11px;"><div style="box-sizing: border-box; font-size: 0px; text-align: center;"><div style="display: inline-block; font-size: 12px; font-family: Helvetica; color: rgb(0, 0, 0); line-height: 1.2; pointer-events: all; white-space: normal; overflow-wrap: normal;">Display On/Off</div></div></div></foreignObject><text x="180" y="1139" fill="#000000" font-family="Helvetica" font-size="12px" text-anchor="middle">Display On/Off</text></switch></g><rect x="10" y="1065" width="160" height="40" fill="none" stroke="#000000" pointer-events="all"/><g transform="translate(-0.5 -0.5)"><switch><foreignObject pointer-events="none" width="100%" height="100%" requiredFeatures="http://www.w3.org/TR/SVG11/feature#Extensibility" style="overflow: visible; text-align: left;"><div xmlns="http://www.w3.org/1999/xhtml" style="display: flex; align-items: unsafe center; justify-content: unsafe center; width: 158px; height: 1px; padding-top: 1085px; margin-left: 11px;"><div style="box-sizing: border-box; font-size: 0px; text-align: center;"><div style="display: inline-block; font-size: 12px; font-family: Helvetica; color: rgb(0, 0, 0); line-height: 1.2; pointer-events: all; white-space: normal; overflow-wrap: normal;">Snooze</div></div></div></foreignObject><text x="90" y="1089" fill="#000000" font-family="Helvetica" font-size="12px" text-anchor="middle">Snooze</text></switch></g><rect x="190" y="1065" width="160" height="40" fill="none" stroke="#000000" pointer-events="all"/><g transform="translate(-0.5 -0.5)"><switch><foreignObject pointer-events="none" width="100%" height="100%" requiredFeatures="http://www.w3.org/TR/SVG11/feature#Extensibility" style="overflow: visible; text-align: left;"><div xmlns="http://www.w3.org/1999/xhtml" style="display: flex; align-items: unsafe center; justify-content: unsafe center; width: 158px; height: 1px; padding-top: 1085px; margin-left: 191px;"><div style="box-sizing: border-box; font-size: 0px; text-align: center;"><div style="display: inline-block; font-size: 12px; font-family: Helvetica; color: rgb(0, 0, 0); line-height: 1.2; pointer-events: all; white-space: normal; overflow-wrap: normal;">Alarm / Music Off</div></div></div></foreignObject><text x="270" y="1089" fill="#000000" font-family="Helvetica" font-size="12px" text-anchor="middle">Alarm / Music Off</text></switch></g></g><switch><g requiredFeatures="http://www.w3.org/TR/SVG11/feature#Extensibility"/><a transform="translate(0,-5)" xlink:href="https://www.diagrams.net/doc/faq/svg-export-text-problems" target="_blank"><text text-anchor="middle" font-size="10px" x="50%" y="100%">Viewer does not support full SVG 1.1</text></a></switch></svg>